<?xml version="1.0" encoding="utf-8" ?>
<svg xmlns="http://www.w3.org/2000/svg" xmlns:xlink="http://www.w3.org/1999/xlink" width="16" height="16">
	<path fill="#21B0FE" transform="scale(0.015625 0.015625)" d="M0 0L484.742 0L538.876 0L1024 0L1024 491.213L1024 527.34L1024 1024L525.965 1024L496.673 1024L0 1024L0 528.85L0 495.551L0 0Z"/>
	<path fill="none" transform="scale(0.015625 0.015625)" d="M538.876 0L1024 0L1024 491.213C1022.23 483.081 1022.62 474.266 1021.97 465.968C1021.11 455.118 1019.45 444.444 1017.56 433.734Q1016.43 426.933 1015.13 420.164Q1013.83 413.395 1012.35 406.662Q1010.87 399.929 1009.22 393.236Q1007.56 386.544 1005.74 379.896Q1003.91 373.249 1001.91 366.652Q999.915 360.054 997.746 353.51Q995.577 346.967 993.239 340.482Q990.901 333.997 988.396 327.575Q985.891 321.153 983.219 314.798Q980.548 308.443 977.712 302.16Q974.877 295.876 971.879 289.669Q968.881 283.461 965.723 277.333Q962.566 271.205 959.25 265.162Q955.934 259.118 952.462 253.163Q948.99 247.207 945.365 241.344Q941.74 235.48 937.964 229.713Q934.713 224.747 931.346 219.858Q927.98 214.969 924.5 210.16Q921.02 205.351 917.428 200.625Q913.836 195.899 910.135 191.258Q906.433 186.618 902.625 182.065Q898.816 177.513 894.901 173.05Q890.986 168.588 886.969 164.219Q882.951 159.849 878.831 155.575Q874.712 151.301 870.494 147.124Q866.276 142.948 861.962 138.871Q857.647 134.795 853.238 130.82Q848.829 126.846 844.328 122.976Q839.827 119.105 835.237 115.342Q830.647 111.578 825.97 107.923Q821.293 104.267 816.532 100.723Q811.77 97.178 806.927 93.7457Q802.084 90.3134 797.162 86.9954Q792.24 83.6774 787.242 80.4756Q782.243 77.2737 777.172 74.1898Q772.099 71.1059 766.957 68.1415Q761.814 65.1772 756.603 62.3341Q751.392 59.4909 746.117 56.7706Q740.841 54.0502 735.503 51.4541Q730.164 48.858 724.767 46.3876Q719.37 43.9172 713.916 41.5739Q708.462 39.2305 702.955 37.0155Q697.448 34.8004 691.89 32.7149Q686.333 30.6295 680.728 28.6746Q675.123 26.7198 669.474 24.8968Q663.825 23.0737 658.135 21.3834Q652.444 19.6931 646.716 18.1365Q640.988 16.5799 635.225 15.1578Q602.956 7.275 569.971 3.35546C560.283 2.15238 548.768 2.26119 539.485 0.147951C539.281 0.101622 539.079 0.0493169 538.876 0Z"/>
	<path fill="none" transform="scale(0.015625 0.015625)" d="M525.965 1024C534.216 1022.47 542.862 1022.9 551.214 1022.05C568.883 1020.25 586.745 1017.66 604.262 1014.72C678.043 1002.36 755.63 968.69 815.424 923.625C868.842 883.366 915.495 834.313 949.923 776.702C956.877 765.066 962.982 752.891 969.065 740.786C988.829 701.461 1003.28 661.997 1012.33 618.826C1016.31 599.825 1019.82 580.304 1021.65 560.964C1022.69 549.989 1022.33 538.785 1023.92 527.881L1024 527.34L1024 1024L525.965 1024Z"/>
	<path fill="none" transform="scale(0.015625 0.015625)" d="M0 0L484.742 0L483.954 0.130551C473.846 1.75986 463.415 1.81699 453.224 3.08439Q419.478 7.42615 386.435 15.5343Q375.046 18.457 363.814 21.9333Q352.581 25.4097 341.532 29.4314Q330.484 33.4531 319.645 38.0105Q308.806 42.568 298.203 47.6502Q294.55 49.334 290.924 51.0754Q287.297 52.8168 283.699 54.6153Q280.101 56.4138 276.532 58.269Q272.963 60.1243 269.423 62.0357Q265.884 63.9471 262.375 65.9143Q258.866 67.8814 255.389 69.9038Q251.912 71.9262 248.467 74.0034Q245.022 76.0805 241.61 78.2119Q238.199 80.3433 234.821 82.5283Q231.444 84.7134 228.102 86.9516Q224.759 89.1898 221.452 91.4806Q218.146 93.7714 214.876 96.1142Q211.606 98.457 208.373 100.851Q205.141 103.245 201.947 105.69Q198.752 108.135 195.597 110.631Q192.442 113.126 189.327 115.671Q186.211 118.216 183.137 120.809Q180.062 123.403 177.029 126.045Q173.995 128.687 171.004 131.377Q168.013 134.067 165.065 136.804Q162.117 139.54 159.212 142.323Q156.308 145.106 153.448 147.935Q150.587 150.764 147.772 153.637Q144.957 156.51 142.188 159.428Q139.419 162.346 136.696 165.307Q133.973 168.268 131.298 171.272Q128.622 174.275 125.994 177.321Q123.366 180.367 120.787 183.454Q118.208 186.54 115.678 189.668Q113.148 192.795 110.667 195.962Q108.187 199.129 105.757 202.335Q103.327 205.54 100.948 208.784Q96.5143 214.823 92.2546 220.987Q87.9949 227.15 83.9127 233.432Q79.8304 239.714 75.9289 246.11Q72.0274 252.506 68.3099 259.011Q64.5923 265.515 61.0618 272.123Q57.5312 278.731 54.1904 285.437Q50.8497 292.143 47.7015 298.942Q44.5533 305.74 41.6002 312.626Q38.6471 319.511 35.8915 326.478Q33.1359 333.445 30.5801 340.487Q28.0243 347.53 25.6703 354.642Q23.3162 361.755 21.166 368.932Q19.0157 376.109 17.0709 383.344Q15.1262 390.579 13.3885 397.867Q11.6508 405.155 10.1216 412.489Q8.59233 419.823 7.27284 427.198C4.84655 441.164 3.2418 455.622 2.14832 469.75C1.50428 478.072 2.04954 487.489 0 495.551L0 0Z"/>
	<path fill="none" transform="scale(0.015625 0.015625)" d="M0 528.85L0.140562 529.537C1.79492 537.928 1.52742 547.04 2.45368 555.583Q5.50461 586.097 11.86 616.097Q15.1566 631.419 19.3101 646.531Q23.4636 661.643 28.4609 676.498Q33.4582 691.353 39.2835 705.902Q45.1087 720.452 51.7434 734.651C87.8936 810.588 148.808 882.547 218.374 930.136C231.772 939.301 245.318 948.475 259.398 956.567Q269.229 962.108 279.29 967.219Q289.351 972.329 299.624 976.999Q309.897 981.67 320.363 985.891Q330.828 990.113 341.467 993.877Q352.105 997.642 362.896 1000.94Q373.688 1004.24 384.612 1007.07Q395.536 1009.9 406.572 1012.26Q417.608 1014.61 428.736 1016.49C443.318 1018.92 458.125 1020.47 472.846 1021.74C480.525 1022.4 489.219 1022.11 496.673 1024L0 1024L0 528.85Z"/>
	<path fill="white" transform="scale(0.015625 0.015625)" d="M503.028 84.2259Q508.118 84.0994 513.209 84.0947Q518.3 84.09 523.39 84.2071Q528.48 84.3242 533.565 84.5631Q538.651 84.8019 543.729 85.1624Q548.808 85.5229 553.876 86.0047Q558.944 86.4866 564 87.0896Q569.055 87.6926 574.095 88.4163Q579.134 89.1401 584.155 89.9842Q589.176 90.8283 594.175 91.7923Q599.174 92.7563 604.148 93.8396Q609.123 94.923 614.07 96.125Q619.017 97.327 623.934 98.6471Q628.852 99.9671 633.736 101.404Q638.62 102.842 643.468 104.396Q648.316 105.949 653.126 107.619Q657.936 109.288 662.704 111.072Q667.473 112.856 672.197 114.753Q676.922 116.651 681.599 118.661Q686.277 120.671 690.905 122.792Q695.533 124.913 700.109 127.145Q704.685 129.376 709.207 131.716Q713.728 134.057 718.193 136.504Q722.657 138.952 727.061 141.506Q731.465 144.06 735.807 146.718Q740.149 149.377 744.426 152.139Q748.703 154.9 752.913 157.763Q757.123 160.627 761.263 163.59Q765.403 166.553 769.471 169.614Q773.539 172.675 777.533 175.833Q781.526 178.991 785.443 182.243Q789.36 185.496 793.198 188.841Q797.036 192.186 800.793 195.622Q804.648 199.121 808.416 202.714Q812.184 206.307 815.863 209.991Q819.542 213.675 823.13 217.448Q826.717 221.221 830.211 225.081Q833.706 228.941 837.104 232.885Q840.503 236.829 843.803 240.856Q847.104 244.882 850.306 248.988Q853.507 253.094 856.606 257.277Q859.706 261.46 862.702 265.718Q865.699 269.976 868.59 274.306Q871.481 278.636 874.265 283.036Q877.049 287.435 879.724 291.901Q882.4 296.368 884.965 300.898Q887.531 305.429 889.984 310.021Q892.438 314.613 894.778 319.264Q897.118 323.915 899.344 328.622Q901.57 333.328 903.679 338.088Q905.789 342.848 907.781 347.658Q909.774 352.468 911.648 357.326Q913.522 362.183 915.276 367.085Q917.031 371.987 918.665 376.93Q920.298 381.874 921.811 386.856Q923.323 391.838 924.713 396.855Q926.102 401.873 927.369 406.923Q928.635 411.973 929.777 417.053Q930.92 422.132 931.937 427.238Q932.955 432.344 933.847 437.474Q934.739 442.603 935.505 447.753Q936.272 452.903 936.911 458.07Q937.551 463.237 938.064 468.418Q938.577 473.599 938.963 478.791Q939.349 483.983 939.608 489.183Q939.818 493.289 939.949 497.398Q940.081 501.506 940.134 505.617Q940.187 509.728 940.162 513.839Q940.137 517.949 940.033 522.059Q939.93 526.169 939.748 530.276Q939.566 534.383 939.306 538.485Q939.046 542.588 938.708 546.685Q938.369 550.782 937.953 554.872Q937.537 558.962 937.043 563.043Q936.549 567.124 935.977 571.195Q935.405 575.266 934.756 579.326Q934.107 583.385 933.38 587.431Q932.654 591.478 931.85 595.509Q931.047 599.541 930.166 603.557Q929.286 607.572 928.33 611.571Q927.373 615.569 926.341 619.548Q925.308 623.527 924.2 627.486Q923.092 631.445 921.908 635.382Q920.725 639.319 919.466 643.232Q918.208 647.146 916.875 651.035Q915.543 654.924 914.136 658.787Q912.73 662.65 911.25 666.485Q909.77 670.32 908.217 674.127Q906.665 677.933 905.04 681.71Q903.415 685.486 901.718 689.23Q900.022 692.975 898.254 696.686Q896.486 700.398 894.648 704.075Q892.81 707.752 890.902 711.394Q888.995 715.035 887.018 718.64Q885.041 722.244 882.995 725.81Q880.95 729.376 878.838 732.903Q876.725 736.429 874.545 739.915C862.015 759.782 848.518 778.146 832.606 795.487Q818.884 810.712 803.9 824.697Q788.917 838.683 772.783 851.324Q767.396 855.408 761.886 859.323Q756.376 863.238 750.747 866.981Q745.118 870.724 739.376 874.29Q733.634 877.857 727.784 881.244Q721.934 884.631 715.982 887.836Q710.031 891.04 703.983 894.059Q697.934 897.078 691.796 899.908Q685.657 902.738 679.434 905.377Q673.21 908.015 666.908 910.46Q660.606 912.905 654.232 915.154Q647.857 917.402 641.416 919.452Q634.974 921.502 628.473 923.352Q621.971 925.202 615.416 926.849Q608.86 928.497 602.256 929.941Q595.653 931.385 589.007 932.624Q582.362 933.862 575.682 934.895C557.589 937.577 539.376 938.491 521.124 939.285Q520.25 939.332 519.376 939.365C495.734 940.233 469.076 937.628 445.725 933.771Q441.715 933.134 437.718 932.421Q433.721 931.709 429.738 930.921Q425.755 930.134 421.787 929.272Q417.82 928.41 413.869 927.474Q409.918 926.538 405.986 925.528Q402.053 924.517 398.141 923.434Q394.228 922.35 390.336 921.193Q386.444 920.036 382.575 918.807Q378.705 917.577 374.86 916.275Q371.014 914.973 367.193 913.599Q363.373 912.225 359.578 910.78Q355.784 909.335 352.018 907.819Q348.251 906.303 344.514 904.716Q340.777 903.13 337.07 901.473Q333.363 899.817 329.688 898.091Q326.013 896.366 322.37 894.572Q318.728 892.777 315.12 890.915Q311.512 889.053 307.94 887.124Q304.368 885.194 300.832 883.198Q297.297 881.202 293.799 879.14Q290.302 877.078 286.843 874.951Q283.385 872.823 279.967 870.632Q276.55 868.44 273.174 866.185Q269.798 863.929 266.464 861.611Q263.131 859.292 259.842 856.912Q256.553 854.531 253.309 852.09Q250.066 849.648 246.868 847.146Q243.671 844.644 240.521 842.082Q237.371 839.521 234.269 836.9Q231.168 834.28 228.116 831.602Q225.064 828.924 222.063 826.189Q219.062 823.455 216.113 820.664Q212.383 817.122 208.74 813.491Q205.097 809.859 201.543 806.14Q197.989 802.421 194.527 798.617Q191.064 794.813 187.695 790.926Q184.326 787.039 181.052 783.072Q177.779 779.104 174.602 775.058Q171.426 771.012 168.349 766.89Q165.271 762.768 162.295 758.573Q159.319 754.377 156.445 750.111Q153.572 745.844 150.803 741.509Q148.034 737.174 145.371 732.774Q142.708 728.373 140.152 723.908Q137.597 719.444 135.151 714.919Q132.704 710.394 130.369 705.811Q128.033 701.228 125.809 696.59Q123.586 691.951 121.475 687.26Q119.365 682.569 117.369 677.828Q115.373 673.088 113.493 668.3Q111.612 663.512 109.849 658.68Q108.085 653.847 106.44 648.974Q104.794 644.1 103.268 639.188Q101.741 634.276 100.334 629.328Q98.9266 624.381 97.6401 619.4Q96.3536 614.42 95.1883 609.41Q94.0231 604.399 92.9799 599.362Q91.9366 594.326 91.016 589.265Q90.0954 584.204 89.2979 579.122Q88.5004 574.041 87.8265 568.941Q87.1526 563.841 86.6027 558.727Q86.0529 553.613 85.6273 548.486Q85.2018 543.36 84.9008 538.225Q84.5999 533.09 84.4237 527.949C80.5987 408.961 122.978 301.486 204.461 214.986C219.118 199.426 235.589 185.415 252.545 172.435Q255.89 169.862 259.285 167.356Q262.68 164.85 266.124 162.411Q269.568 159.973 273.06 157.603Q276.551 155.233 280.089 152.933Q283.627 150.633 287.21 148.404Q290.793 146.174 294.419 144.016Q298.046 141.858 301.714 139.772Q305.383 137.687 309.092 135.674Q312.801 133.661 316.549 131.723Q320.297 129.784 324.083 127.92Q327.869 126.056 331.691 124.267Q335.513 122.479 339.37 120.766Q343.227 119.054 347.117 117.418Q351.007 115.782 354.928 114.224Q358.85 112.665 362.802 111.185Q366.753 109.705 370.734 108.303Q374.714 106.901 378.721 105.579Q382.729 104.256 386.761 103.014Q390.794 101.771 394.851 100.608Q398.907 99.4454 402.986 98.3633Q407.065 97.2813 411.164 96.2803Q415.264 95.2793 419.382 94.3598Q423.501 93.4402 427.637 92.6025Q431.773 91.7647 435.924 91.0091Q440.076 90.2535 444.242 89.5804Q448.408 88.9072 452.586 88.3167Q456.765 87.7263 460.954 87.2187Q465.143 86.7112 469.342 86.2868Q473.54 85.8624 477.746 85.5212Q481.952 85.1801 486.164 84.9224Q490.376 84.6647 494.593 84.4906Q498.809 84.3165 503.028 84.2259Z"/>
	<path fill="#21B0FE" transform="scale(0.015625 0.015625)" d="M250.215 801.978Q243.879 796.356 237.742 790.517C231.546 784.544 225.866 778.066 220.122 771.664C156.583 700.844 123.21 609.188 121.645 514.499Q121.512 502.29 122.184 490.099Q122.857 477.908 124.333 465.788Q125.809 453.668 128.081 441.671Q130.354 429.675 133.413 417.855C150.357 350.18 182.863 289.629 231.513 239.446Q234.836 235.963 238.245 232.563Q241.654 229.164 245.146 225.85Q248.639 222.537 252.212 219.311Q255.786 216.085 259.439 212.95Q263.092 209.814 266.822 206.77Q270.552 203.726 274.356 200.776Q278.16 197.826 282.037 194.971Q285.914 192.117 289.86 189.36Q293.806 186.602 297.82 183.944Q301.834 181.286 305.913 178.729Q309.991 176.171 314.132 173.716Q318.274 171.261 322.474 168.909Q326.675 166.558 330.933 164.312Q335.192 162.066 339.504 159.926Q343.817 157.787 348.181 155.755Q352.546 153.723 356.96 151.801Q361.373 149.879 365.834 148.067Q370.294 146.255 374.798 144.555Q379.302 142.854 383.847 141.267Q388.391 139.679 392.974 138.205Q397.557 136.73 402.175 135.371Q406.794 134.011 411.444 132.767Q416.095 131.522 420.775 130.394Q425.455 129.266 430.162 128.254Q434.869 127.243 439.599 126.349Q444.33 125.455 449.081 124.679Q453.832 123.903 458.601 123.245Q463.37 122.587 468.154 122.049Q472.938 121.51 477.734 121.09Q482.53 120.671 487.335 120.371Q492.14 120.071 496.95 119.89Q501.761 119.71 506.575 119.649Q510.545 119.575 514.516 119.583Q518.487 119.591 522.457 119.68Q526.427 119.77 530.394 119.941Q534.361 120.113 538.324 120.366Q542.287 120.619 546.244 120.953Q550.201 121.288 554.15 121.704Q558.099 122.12 562.038 122.618Q565.978 123.115 569.907 123.693Q573.835 124.272 577.751 124.931Q581.667 125.59 585.568 126.33Q589.47 127.07 593.355 127.89Q597.24 128.71 601.108 129.61Q604.976 130.51 608.824 131.489Q612.672 132.469 616.499 133.527Q620.327 134.585 624.131 135.723Q627.936 136.86 631.716 138.075Q635.497 139.29 639.251 140.583Q643.006 141.876 646.733 143.246Q650.46 144.616 654.158 146.062Q657.856 147.509 661.524 149.031Q665.191 150.553 668.827 152.151Q672.462 153.748 676.064 155.421Q679.666 157.093 683.232 158.839Q686.799 160.585 690.328 162.404Q693.858 164.223 697.35 166.114Q700.841 168.006 704.293 169.968Q707.745 171.931 711.156 173.965Q714.566 175.999 717.934 178.102Q721.302 180.206 724.626 182.378Q727.95 184.551 731.229 186.791Q734.507 189.031 737.739 191.339Q740.971 193.646 744.154 196.02C759.955 207.793 774.737 221.044 788.866 234.753Q792.289 238.188 795.625 241.708Q798.96 245.227 802.208 248.828Q805.455 252.43 808.611 256.111Q811.768 259.792 814.832 263.551Q817.896 267.31 820.865 271.144Q823.834 274.978 826.707 278.884Q829.579 282.791 832.354 286.768Q835.128 290.745 837.803 294.79Q840.477 298.835 843.05 302.945Q845.623 307.056 848.093 311.229Q850.563 315.402 852.928 319.635Q855.293 323.869 857.552 328.16Q859.81 332.451 861.961 336.797Q864.112 341.143 866.155 345.541Q868.197 349.939 870.129 354.387Q872.061 358.835 873.881 363.329Q875.702 367.824 877.41 372.362Q879.118 376.901 880.712 381.48Q882.306 386.06 883.786 390.678Q885.266 395.296 886.63 399.949Q887.994 404.603 889.242 409.289Q890.49 413.974 891.621 418.69Q892.751 423.406 893.764 428.148Q894.777 432.89 895.672 437.656Q896.566 442.422 897.341 447.209Q898.117 451.996 898.773 456.8Q899.428 461.605 899.964 466.425Q900.5 471.244 900.916 476.075Q901.332 480.907 901.627 485.747Q901.922 490.587 902.096 495.433Q902.271 500.279 902.324 505.128Q902.378 509.977 902.311 514.826Q902.239 542.405 898.587 569.741Q898.052 573.551 897.441 577.35Q896.83 581.148 896.142 584.934Q895.454 588.719 894.689 592.49Q893.925 596.26 893.084 600.015Q892.244 603.769 891.328 607.506Q890.411 611.243 889.42 614.96Q888.428 618.678 887.362 622.375Q886.296 626.071 885.155 629.746Q884.014 633.42 882.799 637.07Q881.584 640.721 880.295 644.346Q879.007 647.971 877.645 651.57Q876.284 655.168 874.85 658.739Q873.416 662.309 871.91 665.849Q870.404 669.39 868.827 672.899Q867.25 676.408 865.602 679.885Q863.955 683.362 862.237 686.805Q860.519 690.248 858.733 693.655Q856.946 697.062 855.09 700.433Q853.235 703.803 851.312 707.135Q849.389 710.468 847.399 713.76Q845.409 717.053 843.352 720.305Q841.296 723.557 839.175 726.767Q837.053 729.976 834.867 733.142Q832.681 736.309 830.432 739.43Q828.182 742.551 825.87 745.626Q823.558 748.702 821.184 751.729Q818.81 754.757 816.376 757.736Q813.941 760.716 811.447 763.645Q808.953 766.574 806.4 769.453Q803.847 772.331 801.237 775.158Q798.626 777.984 795.959 780.757Q793.292 783.53 790.569 786.248C711.809 863.535 616.42 903.241 505.722 902.116Q502.208 902.06 498.696 901.94Q495.184 901.82 491.674 901.638Q488.164 901.455 484.659 901.209Q481.153 900.964 477.652 900.655Q474.152 900.347 470.657 899.976Q467.162 899.604 463.675 899.17Q460.188 898.736 456.708 898.24Q453.229 897.743 449.76 897.185Q446.29 896.626 442.831 896.005Q439.372 895.384 435.925 894.701Q432.478 894.018 429.043 893.273Q425.609 892.528 422.188 891.722Q418.768 890.915 415.362 890.048Q411.957 889.18 408.567 888.252Q405.178 887.323 401.806 886.334Q398.433 885.345 395.079 884.295Q391.726 883.245 388.391 882.136Q385.057 881.026 381.743 879.856Q378.428 878.687 375.136 877.458Q371.843 876.23 368.573 874.942Q365.304 873.655 362.057 872.309Q358.811 870.963 355.589 869.558Q352.368 868.154 349.172 866.693Q345.976 865.231 342.807 863.712Q339.638 862.193 336.496 860.618Q333.355 859.042 330.242 857.411Q327.13 855.779 324.047 854.092Q320.964 852.405 317.912 850.662Q314.86 848.92 311.84 847.123Q308.82 845.326 305.832 843.476Q302.845 841.625 299.891 839.721Q296.937 837.817 294.018 835.86C278.822 825.781 263.477 814.538 250.215 801.978Z"/>
	<path fill="white" transform="scale(0.015625 0.015625)" d="M574.769 627.423C589.772 647.232 606.05 664.915 630.641 672.266C654.158 679.296 684.168 677.04 705.839 665.183C716.17 659.53 726.182 649.148 729.446 637.627C732.998 625.091 730.586 612.558 722.298 602.512C704.554 581.006 665.612 567.489 640.321 556.249C612.16 543.735 582.857 531.649 557.829 513.341C544.169 503.348 531.96 490.088 523.763 475.237C509.618 449.608 507.521 414.375 515.784 386.63Q516.163 385.33 516.574 384.04Q516.984 382.751 517.427 381.471Q517.87 380.192 518.344 378.924Q518.818 377.656 519.324 376.4Q519.83 375.145 520.367 373.902Q520.903 372.659 521.471 371.43Q522.038 370.201 522.636 368.986Q523.233 367.772 523.861 366.572Q524.489 365.373 525.146 364.189Q525.803 363.006 526.49 361.839Q527.176 360.672 527.891 359.523Q528.606 358.373 529.35 357.242Q530.093 356.111 530.865 354.998Q531.636 353.886 532.435 352.793Q533.233 351.7 534.059 350.627Q534.884 349.554 535.736 348.502Q536.588 347.45 537.466 346.42Q538.344 345.389 539.247 344.381Q540.15 343.372 541.078 342.386Q542.006 341.401 542.958 340.438Q543.91 339.476 544.885 338.537Q545.861 337.599 546.86 336.685Q547.858 335.771 548.879 334.882Q549.9 333.993 550.943 333.13Q551.986 332.267 553.05 331.43Q554.114 330.592 555.198 329.782Q556.282 328.971 557.386 328.188Q558.49 327.405 559.614 326.649Q560.737 325.894 561.879 325.166Q563.02 324.439 564.179 323.74Q565.339 323.041 566.515 322.371Q567.691 321.701 568.884 321.06C611.967 298.197 666.925 299.62 712.555 313.405C741.527 323.227 763.599 338.624 777.428 366.627C786.73 385.462 792.976 408.109 792.464 429.158C765.85 429.482 739.276 430.815 712.673 431.384C711.388 416.554 705.673 399.266 695.96 387.772C683.277 374.772 667.54 369.259 649.493 369.098C632.376 368.945 616.1 374.501 603.769 386.607C595.25 394.97 590.775 405.598 590.775 417.54C590.775 427.95 594.899 437.456 602.317 444.748C606.902 449.255 612.321 453.152 617.641 456.748C655.45 479.778 700.645 493.018 739.889 514.525C751.54 520.91 763.272 527.988 773.283 536.764C790.2 551.594 803.184 572.095 808.538 594.012C815.666 623.192 811.946 655.915 796.206 681.689C776.231 714.398 742.099 731.332 706.018 739.856C656.82 751.479 600.094 747.514 556.409 720.347C526.732 701.892 501.721 668.682 493.044 634.757L498.519 633.096C499.618 588.868 497.545 544.513 498.756 500.287C494.996 507.132 492.065 514.655 488.656 521.713Q474.02 551.609 460.359 581.963C446.23 612.844 431.291 643.336 417.757 674.491Q402.859 674.202 387.958 674.328L384.429 666.749C367.466 631.581 352.08 595.524 336.115 559.887C325.556 536.318 313.796 513.118 304.486 489.022C306.048 522.302 305.421 555.832 305.298 589.141L305.141 717.505L225.527 717.639L225.001 304.512C250.587 304.486 276.222 303.573 301.798 304.403C312.46 326.252 321.334 349.135 331.321 371.302L402.249 530.217C405.874 520.799 410.588 511.685 414.769 502.496Q428.573 471.977 443.045 441.768L508.436 304.34C527.071 304.576 545.727 304.223 564.358 304.74C544.318 314.12 525.804 331.522 514.007 350.153C495.242 379.79 488.775 418.175 496.647 452.488C503.186 480.994 521.177 508.712 544.396 526.615C554.117 534.11 564.92 540.029 575.309 546.516C574.22 557.412 575.002 569.063 574.994 580.058C574.982 595.836 574.515 611.654 574.769 627.423Z"/>
</svg>
