<?xml version="1.0" encoding="utf-8" ?>
<svg xmlns="http://www.w3.org/2000/svg"  width="16" height="16">
	<path fill="white" transform="scale(0.015625 0.015625)" d="M0 0L1024 0L1024 1024L0 1024L0 0Z"/>
	<path fill="#21B0FE" transform="scale(0.015625 0.015625)" d="M495.004 1012.47C474.81 1011.58 454.562 1010.22 434.573 1007.08Q429.859 1006.3 425.16 1005.43Q420.462 1004.56 415.781 1003.6Q411.099 1002.64 406.437 1001.59Q401.775 1000.54 397.133 999.407Q392.491 998.272 387.872 997.049Q383.252 995.826 378.657 994.517Q374.061 993.207 369.491 991.811Q364.921 990.415 360.378 988.932Q355.835 987.45 351.321 985.883Q346.807 984.315 342.323 982.662Q337.839 981.01 333.388 979.273Q328.936 977.536 324.518 975.715Q320.1 973.895 315.717 971.991Q311.334 970.088 306.987 968.102Q302.641 966.116 298.333 964.048Q294.025 961.98 289.757 959.832Q285.488 957.683 281.261 955.454Q277.034 953.225 272.85 950.917Q268.666 948.609 264.526 946.222Q260.386 943.836 256.292 941.371Q252.198 938.907 248.151 936.366Q244.105 933.825 240.106 931.207Q236.108 928.59 232.16 925.898Q228.212 923.206 224.316 920.44Q220.419 917.673 216.575 914.834Q212.732 911.995 208.942 909.084Q205.153 906.173 201.419 903.19Q197.685 900.208 194.009 897.156Q190.332 894.104 186.713 890.983Q183.095 887.862 179.536 884.673Q175.977 881.485 172.478 878.229Q168.98 874.974 165.544 871.653Q161.102 867.365 156.768 862.97Q152.433 858.574 148.207 854.073Q143.982 849.572 139.868 844.968Q135.755 840.365 131.756 835.662Q127.757 830.958 123.875 826.158Q119.993 821.358 116.23 816.464Q112.467 811.57 108.825 806.584Q105.184 801.599 101.666 796.526Q98.1482 791.452 94.7563 786.294Q91.3644 781.136 88.1003 775.896Q84.8363 770.656 81.702 765.337Q78.5678 760.018 75.5653 754.624Q72.5629 749.229 69.694 743.763Q66.825 738.297 64.0914 732.761Q61.3578 727.226 58.7611 721.625Q56.1645 716.024 53.7063 710.361Q51.2481 704.698 48.93 698.976Q46.6118 693.254 44.4351 687.477Q42.2583 681.7 40.2243 675.871Q38.1903 670.042 36.3002 664.165Q34.4101 658.288 32.6652 652.366Q30.9202 646.444 29.3213 640.482Q27.7225 634.519 26.2708 628.518Q24.8191 622.518 23.5154 616.483Q22.2117 610.449 21.0567 604.384Q19.9018 598.32 18.8964 592.229Q17.8909 586.138 17.0356 580.023Q16.1802 573.909 15.4755 567.776Q14.7707 561.643 14.217 555.494Q13.6633 549.346 13.261 543.185Q12.8586 537.025 12.6079 530.856Q12.3572 524.688 12.2582 518.515Q12.1582 513.698 12.152 508.88Q12.1458 504.063 12.2333 499.246Q12.3209 494.429 12.5022 489.614Q12.6834 484.8 12.9584 479.99Q13.2333 475.18 13.6018 470.376Q13.9703 465.573 14.4322 460.777Q14.8941 455.981 15.4492 451.196Q16.0044 446.41 16.6525 441.636Q17.3007 436.862 18.0417 432.101Q18.7826 427.341 19.6161 422.596Q20.4496 417.851 21.3752 413.122Q22.3009 408.394 23.3184 403.685Q24.3359 398.976 25.4448 394.288Q26.5537 389.599 27.7537 384.933Q28.9537 380.267 30.2443 375.626Q31.5348 370.984 32.9155 366.368Q34.2961 361.752 35.7663 357.164Q37.2365 352.576 38.7957 348.018Q40.355 343.459 42.0026 338.932Q43.6502 334.405 45.3857 329.91Q47.1211 325.416 48.9437 320.956Q50.7663 316.497 52.6753 312.073Q54.5843 307.65 56.579 303.264Q58.5738 298.879 60.6535 294.533Q62.7332 290.187 64.8971 285.883Q67.061 281.578 69.3083 277.316Q71.5555 273.055 73.8853 268.838Q76.215 264.621 78.6264 260.45Q81.0378 256.279 83.5299 252.156Q86.022 248.033 88.5939 243.959Q91.1658 239.885 93.8165 235.862Q96.4671 231.839 99.1956 227.868C112.32 208.596 126.785 189.318 142.935 172.447Q157.51 157.105 173.138 142.836Q188.766 128.567 205.367 115.444Q209.32 112.388 213.333 109.412Q217.346 106.436 221.418 103.54Q225.489 100.644 229.618 97.8302Q233.747 95.0163 237.93 92.2853Q242.114 89.5542 246.352 86.9072Q250.589 84.2602 254.879 81.6982Q259.168 79.1362 263.508 76.6603Q267.848 74.1844 272.236 71.7955Q276.624 69.4066 281.059 67.1057Q285.494 64.8048 289.974 62.5928Q294.454 60.3809 298.978 58.2587Q303.501 56.1365 308.065 54.105Q312.63 52.0734 317.234 50.1333Q321.839 48.1932 326.481 46.3453Q331.123 44.4975 335.801 42.7425Q340.479 40.9876 345.191 39.3263Q349.903 37.665 354.647 36.098Q359.391 34.5311 364.166 33.059Q368.94 31.587 373.743 30.2105Q378.546 28.834 383.376 27.5535Q388.205 26.273 393.059 25.0892Q397.914 23.9053 402.79 22.8185Q407.667 21.7316 412.564 20.7423Q417.462 19.7529 422.378 18.8615Q427.294 17.97 432.227 17.1767Q437.16 16.3835 442.108 15.6888Q447.056 14.9941 452.016 14.3982Q456.977 13.8023 461.948 13.3055Q466.92 12.8086 471.901 12.4111Q476.881 12.0135 481.868 11.7153Q486.856 11.4172 491.848 11.2185Q496.841 11.0199 501.836 10.9209Q507.911 10.7787 513.988 10.7851Q520.065 10.7915 526.14 10.9466Q532.215 11.1016 538.284 11.4053Q544.353 11.7089 550.413 12.1609Q556.473 12.613 562.52 13.2131Q568.567 13.8132 574.598 14.5611Q580.629 15.309 586.639 16.2042Q592.65 17.0994 598.637 18.1413Q604.623 19.1833 610.583 20.3714Q616.542 21.5595 622.471 22.8931Q628.4 24.2266 634.294 25.7048Q640.188 27.183 646.045 28.8049Q651.901 30.4268 657.716 32.1915Q663.531 33.9562 669.301 35.8627Q675.071 37.7691 680.793 39.8161Q686.515 41.8632 692.185 44.0495Q697.854 46.2359 703.469 48.5603Q709.084 50.8848 714.64 53.3459Q720.196 55.8069 725.691 58.4032Q731.185 60.9995 736.614 63.7294Q742.043 66.4593 747.404 69.3212Q752.765 72.1831 758.054 75.1753Q763.343 78.1675 768.557 81.2882Q773.772 84.4088 778.908 87.6562Q784.044 90.9035 789.1 94.2754Q794.155 97.6474 799.127 101.142Q804.098 104.637 808.983 108.252Q813.867 111.867 818.662 115.601Q823.456 119.334 828.158 123.184Q832.86 127.034 837.466 130.998Q842.072 134.961 846.58 139.037Q851.088 143.112 855.495 147.296Q859.131 150.761 862.697 154.298Q866.263 157.836 869.757 161.443Q873.252 165.051 876.674 168.727Q880.096 172.404 883.444 176.148Q886.792 179.892 890.065 183.702Q893.337 187.512 896.533 191.387Q899.729 195.261 902.847 199.199Q905.966 203.137 909.005 207.136Q912.043 211.135 915.002 215.193Q917.961 219.252 920.838 223.369Q923.715 227.486 926.509 231.66Q929.303 235.833 932.014 240.062Q934.725 244.29 937.35 248.572Q939.976 252.854 942.516 257.187Q945.056 261.52 947.508 265.903Q949.961 270.286 952.326 274.717Q954.691 279.148 956.967 283.626Q959.243 288.103 961.43 292.625Q963.616 297.147 965.712 301.711Q967.807 306.276 969.812 310.881Q971.816 315.487 973.728 320.131Q975.64 324.776 977.459 329.457Q979.278 334.139 981.003 338.856Q982.728 343.573 984.359 348.324Q985.99 353.074 987.526 357.856Q989.062 362.638 990.502 367.45Q991.942 372.262 993.286 377.102Q994.629 381.941 995.877 386.807Q997.124 391.672 998.273 396.561Q999.423 401.451 1000.47 406.362Q1001.53 411.273 1002.48 416.204Q1003.43 421.136 1004.29 426.085C1007.94 447.029 1011.14 468.014 1011.53 489.32C1003.82 483.893 996.913 475.673 990.247 468.986L955.222 433.844Q900.268 377.827 844.21 322.915L809.121 287.865C800.082 278.849 791.044 269.427 780.958 261.575L779.608 262.251L780.617 261.349L779.572 262.072L779.359 261.436C779.665 262.53 779.591 262.128 779.745 263.169C779.779 263.398 779.808 263.627 779.84 263.856C766.48 248.928 752.637 234.401 736.908 221.924C692.582 186.762 630.965 163.48 574.477 160.364Q570.848 160.147 567.216 160.02Q563.583 159.893 559.948 159.855Q556.313 159.817 552.679 159.869Q549.044 159.921 545.412 160.062Q541.779 160.204 538.152 160.434Q534.524 160.665 530.903 160.985Q527.282 161.305 523.67 161.714Q520.059 162.123 516.458 162.621Q512.857 163.119 509.27 163.705Q505.682 164.291 502.11 164.966Q498.538 165.641 494.984 166.403Q491.43 167.165 487.896 168.015Q484.361 168.864 480.849 169.801Q477.337 170.737 473.849 171.76Q470.36 172.782 466.898 173.89Q463.437 174.999 460.003 176.192Q456.569 177.385 453.166 178.662Q449.763 179.939 446.392 181.3Q443.021 182.661 439.685 184.104Q436.349 185.547 433.049 187.072Q429.75 188.597 426.489 190.203Q423.228 191.809 420.007 193.495Q416.787 195.18 413.609 196.945Q410.43 198.709 407.297 200.551Q404.163 202.393 401.076 204.312Q397.989 206.231 394.949 208.225Q391.91 210.219 388.921 212.288Q385.932 214.356 382.995 216.498Q380.057 218.639 377.174 220.852Q374.29 223.065 371.462 225.349Q368.634 227.632 365.863 229.985Q363.091 232.337 360.379 234.757Q350.095 243.969 340.726 254.111Q331.357 264.253 322.987 275.233C321.253 277.512 318.442 280.536 317.641 283.227L318.312 283.904C326.158 292.975 335.064 300.942 343.597 309.344L394.621 359.358C405.117 369.76 415.797 380.051 426.133 390.6C433.035 397.644 447.266 413.162 454.799 418.152Q446.458 436.177 439.014 454.59C425.059 439.291 409.969 424.809 395.415 410.071C384.92 399.443 374.878 388.384 364.405 377.743C353.005 366.159 341.088 354.988 329.512 343.566C317.352 331.568 305.728 319.08 293.48 307.156C289.715 303.49 286.024 299.486 282.005 296.106C280.726 295.03 279.849 294.315 278.175 294.095L277.516 292.955C270.624 292.012 262.553 292.928 255.549 292.928Q232.096 292.754 208.643 292.879C208.099 333.841 208.532 374.846 208.549 415.815L208.632 624.999C208.649 636.47 207.627 728.058 209.327 732.189C210.283 732.397 211.095 732.493 212.073 732.481C216.481 738.697 223.558 744.379 229.009 749.763L274.11 793.78L451.105 969.808Q466.198 985.017 481.614 999.9C484.856 1003 492.86 1009.1 495.004 1012.47Z"/>
	<path fill="#0488CD" transform="scale(0.015625 0.015625)" d="M318.312 283.904L317.641 283.227C318.442 280.536 321.253 277.512 322.987 275.233Q331.357 264.253 340.726 254.111Q350.095 243.969 360.379 234.757Q363.091 232.337 365.863 229.985Q368.634 227.632 371.462 225.349Q374.29 223.065 377.174 220.852Q380.057 218.639 382.995 216.498Q385.932 214.356 388.921 212.288Q391.91 210.219 394.949 208.225Q397.989 206.231 401.076 204.312Q404.163 202.393 407.297 200.551Q410.43 198.709 413.609 196.945Q416.787 195.18 420.007 193.495Q423.228 191.809 426.489 190.203Q429.75 188.597 433.049 187.072Q436.349 185.547 439.685 184.104Q443.021 182.661 446.392 181.3Q449.763 179.939 453.166 178.662Q456.569 177.385 460.003 176.192Q463.437 174.999 466.898 173.89Q470.36 172.782 473.849 171.76Q477.337 170.737 480.849 169.801Q484.361 168.864 487.896 168.015Q491.43 167.165 494.984 166.403Q498.538 165.641 502.11 164.966Q505.682 164.291 509.27 163.705Q512.857 163.119 516.458 162.621Q520.059 162.123 523.67 161.714Q527.282 161.305 530.903 160.985Q534.524 160.665 538.152 160.434Q541.779 160.204 545.412 160.062Q549.044 159.921 552.679 159.869Q556.313 159.817 559.948 159.855Q563.583 159.893 567.216 160.02Q570.848 160.147 574.477 160.364C630.965 163.48 692.582 186.762 736.908 221.924C752.637 234.401 766.48 248.928 779.84 263.856C779.808 263.627 779.779 263.398 779.745 263.169C779.591 262.128 779.665 262.53 779.359 261.436L779.572 262.072L780.617 261.349L779.608 262.251L780.958 261.575C791.044 269.427 800.082 278.849 809.121 287.865L844.21 322.915Q900.268 377.827 955.222 433.844L990.247 468.986C996.913 475.673 1003.82 483.893 1011.53 489.32Q1011.82 495.553 1011.96 501.792Q1012.1 508.03 1012.08 514.27Q1012.06 520.51 1011.89 526.747Q1011.72 532.985 1011.39 539.216Q1011.06 545.448 1010.57 551.669Q1010.09 557.89 1009.45 564.097Q1008.81 570.304 1008.01 576.493Q1007.22 582.682 1006.27 588.849Q1005.32 595.017 1004.22 601.159Q1003.12 607.3 1001.86 613.413Q1000.6 619.525 999.196 625.604Q997.788 631.683 996.229 637.725Q994.669 643.767 992.96 649.768Q991.25 655.769 989.391 661.726Q987.532 667.682 985.525 673.591Q983.518 679.499 981.364 685.356Q979.209 691.212 976.91 697.013Q974.61 702.813 972.167 708.555Q969.723 714.297 967.136 719.975Q964.55 725.654 961.823 731.266Q959.095 736.879 956.229 742.421Q953.362 747.964 950.358 753.433Q947.354 758.902 944.214 764.295Q941.074 769.687 937.801 775Q934.527 780.312 931.122 785.541Q927.717 790.77 924.183 795.913Q920.648 801.055 916.986 806.107Q913.325 811.16 909.538 816.12Q905.751 821.079 901.841 825.943Q897.932 830.806 893.902 835.57Q889.872 840.334 885.725 844.997Q881.578 849.659 877.315 854.216Q873.181 858.634 868.942 862.951Q864.703 867.268 860.36 871.481Q856.018 875.694 851.575 879.801Q847.132 883.908 842.592 887.907Q838.051 891.905 833.415 895.793Q828.779 899.681 824.05 903.455Q819.322 907.23 814.503 910.889Q809.685 914.548 804.779 918.09Q799.874 921.632 794.884 925.054Q789.895 928.476 784.824 931.777Q779.753 935.078 774.604 938.255Q769.456 941.432 764.231 944.484Q759.007 947.536 753.711 950.461Q748.414 953.386 743.049 956.182Q737.683 958.978 732.252 961.643Q726.82 964.309 721.326 966.843Q715.831 969.376 710.277 971.776Q704.723 974.176 699.113 976.441Q693.503 978.707 687.839 980.836Q682.176 982.965 676.463 984.956Q670.75 986.948 664.99 988.801Q659.23 990.654 653.428 992.367Q647.625 994.081 641.783 995.653Q635.94 997.226 630.062 998.657Q624.183 1000.09 618.271 1001.38Q612.36 1002.67 606.419 1003.81Q600.478 1004.96 594.511 1005.96Q588.544 1006.96 582.555 1007.82Q576.566 1008.67 570.557 1009.39Q564.549 1010.1 558.525 1010.67Q552.501 1011.23 546.466 1011.65Q540.43 1012.07 534.386 1012.35C521.297 1012.82 508.098 1012.72 495.004 1012.47C492.86 1009.1 484.856 1003 481.614 999.9Q466.198 985.017 451.105 969.808L274.11 793.78L229.009 749.763C223.558 744.379 216.481 738.697 212.073 732.481C211.095 732.493 210.283 732.397 209.327 732.189C207.627 728.058 208.649 636.47 208.632 624.999L208.549 415.815C208.532 374.846 208.099 333.841 208.643 292.879Q232.096 292.754 255.549 292.928C262.553 292.928 270.624 292.012 277.516 292.955L278.175 294.095C279.849 294.315 280.726 295.03 282.005 296.106C286.024 299.486 289.715 303.49 293.48 307.156C305.728 319.08 317.352 331.568 329.512 343.566C341.088 354.988 353.005 366.159 364.405 377.743C374.878 388.384 384.92 399.443 395.415 410.071C409.969 424.809 425.059 439.291 439.014 454.59Q446.458 436.177 454.799 418.152C447.266 413.162 433.035 397.644 426.133 390.6C415.797 380.051 405.117 369.76 394.621 359.358L343.597 309.344C335.064 300.942 326.158 292.975 318.312 283.904Z"/>
	<defs>
		<linearGradient id="gradient_0" gradientUnits="userSpaceOnUse" x1="652.80383" y1="656.22003" x2="772.19592" y2="509.18063">
			<stop offset="0" stop-color="#025CA5"/>
			<stop offset="1" stop-color="#0173B7"/>
		</linearGradient>
	</defs>
	<path fill="url(#gradient_0)" transform="scale(0.015625 0.015625)" d="M614.243 441.845C674.854 446.481 735.105 468.047 775.567 515.192C800.777 544.566 817.149 579.538 822.391 617.948C823.881 628.865 824.656 639.313 823.805 650.335C820.699 690.591 807.141 726.427 782.509 758.567C778.563 763.715 774.431 769.996 769.665 774.383C768.804 775.176 768.183 775.751 766.962 775.542C766.85 775.523 766.749 775.465 766.642 775.426C772.11 768.258 777.799 761.299 782.841 753.813C802.757 724.242 815.429 690.579 816.506 654.757C817.635 617.179 810.502 588.707 792.702 555.546C785.503 542.136 777.061 529.175 766.535 518.102C728.847 478.458 668.093 453.806 613.748 452.535Q614.042 447.192 614.243 441.845Z"/>
	<path fill="white" transform="scale(0.015625 0.015625)" d="M318.312 283.904L317.641 283.227C318.442 280.536 321.253 277.512 322.987 275.233Q331.357 264.253 340.726 254.111Q350.095 243.969 360.379 234.757Q363.091 232.337 365.863 229.985Q368.634 227.632 371.462 225.349Q374.29 223.065 377.174 220.852Q380.057 218.639 382.995 216.498Q385.932 214.356 388.921 212.288Q391.91 210.219 394.949 208.225Q397.989 206.231 401.076 204.312Q404.163 202.393 407.297 200.551Q410.43 198.709 413.609 196.945Q416.787 195.18 420.007 193.495Q423.228 191.809 426.489 190.203Q429.75 188.597 433.049 187.072Q436.349 185.547 439.685 184.104Q443.021 182.661 446.392 181.3Q449.763 179.939 453.166 178.662Q456.569 177.385 460.003 176.192Q463.437 174.999 466.898 173.89Q470.36 172.782 473.849 171.76Q477.337 170.737 480.849 169.801Q484.361 168.864 487.896 168.015Q491.43 167.165 494.984 166.403Q498.538 165.641 502.11 164.966Q505.682 164.291 509.27 163.705Q512.857 163.119 516.458 162.621Q520.059 162.123 523.67 161.714Q527.282 161.305 530.903 160.985Q534.524 160.665 538.152 160.434Q541.779 160.204 545.412 160.062Q549.044 159.921 552.679 159.869Q556.313 159.817 559.948 159.855Q563.583 159.893 567.216 160.02Q570.848 160.147 574.477 160.364C630.965 163.48 692.582 186.762 736.908 221.924C752.637 234.401 766.48 248.928 779.84 263.856C807.586 299.142 829.897 339.588 839.52 383.745C841.036 390.702 842.706 398.031 843.246 405.136C822.126 405.101 800.951 405.48 779.838 405.231C776.175 389.745 771.754 374.562 765.443 359.916Q763.673 355.916 761.754 351.986Q759.834 348.056 757.767 344.201Q755.701 340.347 753.49 336.573Q751.279 332.799 748.928 329.111Q746.576 325.423 744.087 321.826Q741.598 318.23 738.975 314.73Q736.352 311.23 733.599 307.832Q730.845 304.433 727.966 301.141Q725.086 297.849 722.084 294.668Q719.082 291.487 715.962 288.422Q712.842 285.357 709.609 282.411Q706.375 279.466 703.033 276.645Q699.691 273.824 696.244 271.131Q692.798 268.438 689.252 265.877Q685.706 263.316 682.067 260.89Q678.427 258.465 674.698 256.179C624.649 225.239 560.983 214.33 503.544 228.025C463.627 237.542 430.542 257.441 399.495 283.697C388.001 284.052 376.481 283.649 364.982 283.694C349.437 283.755 333.852 284.177 318.312 283.904Z"/>
	<path fill="white" transform="scale(0.015625 0.015625)" d="M613.748 452.535C668.093 453.806 728.847 478.458 766.535 518.102C777.061 529.175 785.503 542.136 792.702 555.546C810.502 588.707 817.635 617.179 816.506 654.757C815.429 690.579 802.757 724.242 782.841 753.813C777.799 761.299 772.11 768.258 766.642 775.426C762.947 778.062 757.531 785.92 753.617 789.578Q743.714 798.809 733.05 807.148Q722.386 815.488 711.041 822.875C701.688 829.091 691.643 834.205 681.495 838.979Q678.816 840.226 676.113 841.419Q673.41 842.612 670.683 843.751Q667.957 844.89 665.208 845.974Q662.459 847.057 659.689 848.086Q656.919 849.115 654.129 850.087Q651.339 851.06 648.53 851.977Q645.721 852.894 642.894 853.754Q640.067 854.614 637.224 855.418Q634.38 856.221 631.521 856.967Q628.662 857.714 625.789 858.402Q622.916 859.091 620.029 859.722Q617.142 860.353 614.244 860.927Q611.345 861.5 608.435 862.014Q605.526 862.529 602.606 862.986Q599.687 863.442 596.759 863.84Q593.831 864.238 590.896 864.577Q587.961 864.917 585.019 865.197Q582.078 865.477 579.131 865.698Q576.185 865.919 573.234 866.082Q570.284 866.244 567.331 866.347Q564.378 866.45 561.424 866.494Q558.469 866.537 555.514 866.522Q552.56 866.506 549.606 866.432Q546.652 866.357 543.7 866.223Q540.748 866.089 537.8 865.896Q534.851 865.703 531.907 865.451Q528.963 865.199 526.025 864.888Q523.087 864.578 520.155 864.208Q517.224 863.838 514.3 863.409Q511.376 862.981 508.462 862.494Q505.548 862.007 502.644 861.462Q499.74 860.916 496.847 860.313Q493.88 859.683 490.928 858.991Q487.975 858.299 485.038 857.544Q482.1 856.79 479.18 855.974Q476.259 855.158 473.356 854.28Q470.453 853.402 467.569 852.464Q464.685 851.525 461.822 850.526Q458.959 849.526 456.117 848.467Q453.275 847.407 450.457 846.288Q447.638 845.169 444.844 843.99Q442.049 842.812 439.28 841.575Q436.512 840.338 433.769 839.042Q431.027 837.747 428.313 836.394Q425.599 835.041 422.914 833.631Q420.229 832.221 417.574 830.755Q414.919 829.289 412.296 827.767Q409.673 826.245 407.082 824.668Q404.492 823.091 401.935 821.46Q399.378 819.829 396.857 818.144Q394.335 816.459 391.85 814.722Q389.364 812.984 386.916 811.194Q384.467 809.405 382.057 807.564Q379.647 805.723 377.277 803.831Q374.906 801.94 372.576 799.999Q370.246 798.058 367.957 796.068Q365.668 794.078 363.422 792.041Q361.176 790.003 358.973 787.919Q356.77 785.834 354.612 783.704Q352.454 781.573 350.341 779.398Q348.228 777.222 346.162 775.002Q344.095 772.783 342.076 770.52Q340.057 768.257 338.086 765.952Q336.115 763.647 334.193 761.301C327.35 752.924 321.149 743.524 315.18 734.502L397.095 734.394C438.193 773.101 490.48 798.394 547.386 800.774C604.275 803.154 662.691 787.266 705.203 747.976C732.334 722.902 751.44 690.01 752.697 652.407Q752.748 650.962 752.763 649.516Q752.778 648.07 752.758 646.624Q752.737 645.178 752.681 643.733Q752.625 642.288 752.534 640.845Q752.443 639.402 752.316 637.961Q752.189 636.521 752.027 635.084Q751.865 633.647 751.667 632.214Q751.47 630.782 751.237 629.354Q751.005 627.927 750.737 626.506Q750.47 625.085 750.167 623.671Q749.865 622.257 749.528 620.851Q749.191 619.444 748.82 618.047Q748.448 616.649 748.042 615.261Q747.637 613.873 747.197 612.496Q746.758 611.118 746.284 609.751Q745.811 608.385 745.304 607.031Q744.797 605.676 744.257 604.335Q743.717 602.993 743.145 601.666Q742.572 600.338 741.967 599.024Q741.362 597.711 740.725 596.413Q740.087 595.115 739.418 593.833Q738.75 592.551 738.049 591.285Q737.349 590.02 736.618 588.772Q735.887 587.525 735.125 586.295Q734.364 585.066 733.573 583.856Q732.781 582.646 731.96 581.455Q731.139 580.265 730.289 579.095Q729.439 577.925 728.561 576.776Q727.682 575.628 726.776 574.501Q725.87 573.374 724.936 572.27Q724.002 571.166 723.042 570.085Q722.081 569.004 721.094 567.947C693.568 538.411 653.774 522.832 613.824 521.427Q613.903 498.968 613.605 476.511C613.566 468.589 613.155 460.43 613.748 452.535Z"/>
	<path fill="white" transform="scale(0.015625 0.015625)" d="M510.194 292.014Q545.837 292.545 581.484 292.44L581.506 732.073L514.495 732.126L514.286 583.468L514.4 504.003C514.391 489.566 514.637 475.08 514.296 460.651C509.462 470.603 505.498 480.98 501.076 491.12L465.74 573.609L436.225 643.166C429.676 658.48 422.187 673.841 417.009 689.663C401.619 689.336 386.219 689.932 370.837 689.653C365.966 680.564 362.406 670.752 358.284 661.31C355.557 655.065 352.518 648.954 349.866 642.677C343.145 626.765 336.845 610.674 330.082 594.77Q313.096 555.556 296.737 516.076C289.539 499.177 281.748 482.47 275.571 465.165Q276.118 532.448 275.98 599.733C276.041 643.901 276.531 688.196 275.868 732.352C254.621 732.26 233.311 731.853 212.073 732.481C211.095 732.493 210.283 732.397 209.327 732.189C207.627 728.058 208.649 636.47 208.632 624.999L208.549 415.815C208.532 374.846 208.099 333.841 208.643 292.879Q232.096 292.754 255.549 292.928C262.553 292.928 270.624 292.012 277.516 292.955L278.175 294.095C279.849 294.315 280.726 295.03 282.005 296.106C286.024 299.486 289.715 303.49 293.48 307.156C305.728 319.08 317.352 331.568 329.512 343.566C341.088 354.988 353.005 366.159 364.405 377.743C374.878 388.384 384.92 399.443 395.415 410.071C409.969 424.809 425.059 439.291 439.014 454.59Q446.458 436.177 454.799 418.152C474.057 376.506 491.828 334.065 510.194 292.014Z"/>
	<path fill="#0488CD" transform="scale(0.015625 0.015625)" d="M278.175 294.095C279.849 294.315 280.726 295.03 282.005 296.106C286.024 299.486 289.715 303.49 293.48 307.156C305.728 319.08 317.352 331.568 329.512 343.566C341.088 354.988 353.005 366.159 364.405 377.743C374.878 388.384 384.92 399.443 395.415 410.071C409.969 424.809 425.059 439.291 439.014 454.59L409.87 523.118C405.314 533.882 400.168 548.152 394.462 558.022Q368.851 503.065 344.697 447.452C340.856 438.663 337.385 429.71 333.488 420.946L295.052 333.426C289.41 320.337 283.393 307.358 278.175 294.095Z"/>
</svg>
